# xmcd
#
# Track frame offsets:
#	150
#	17041
#	38888
#	55117
#	71621
#	87457
#	105993
#
# Disc length: 1654 seconds
#
# Revision: 0
# Processed by: cddbd v1.5.2PL0 Copyright (c) Steve Scherf et al.
# Submitted via: dBpowerAMP V4.0
#
DISCID=52067407
DTITLE=Trace Adkins - Honky Tonk Badonkadonk CDM
DYEAR=2006
DGENRE=Country/Dance
TTITLE0=Honky Tonk Badonkadonk (Country Club Mix)
TTITLE1=Honky Tonk Badonkadonk ('70s Groove Mix)
TTITLE2=Honky Tonk Badonkadonk (Eurofunk Mix)
TTITLE3=Honky Tonk Badonkadonk (Single Edit)
TTITLE4=Honky Tonk Badonkadonk (Edit - No intro-dialogue)
TTITLE5=Honky Tonk Badonkadonk (Single Edit Extended)
TTITLE6=Honky Tonk Badonkadonk (Album Version)
EXTD=
EXTT0=
EXTT1=
EXTT2=
EXTT3=
EXTT4=
EXTT5=
EXTT6=
PLAYORDER=
